<svg xmlns="http://www.w3.org/2000/svg" width="1400" height="620" viewBox="0 0 1400 620"><rect width="1400" height="620" fill="#f5f7fa"/><text x="700" y="45" text-anchor="middle" font-family="Arial" font-size="28" font-weight="700" fill="#17263a">Validated Reporting Summary</text><g font-family="Arial"><rect x="55" y="85" width="285" height="130" rx="15" fill="#ffffff" stroke="#263f5c" stroke-width="2"/><text x="197" y="120" text-anchor="middle" font-size="17" font-weight="700" fill="#263f5c">Applications</text><text x="197" y="170" text-anchor="middle" font-size="38" font-weight="700" fill="#17263a">7</text><text x="197" y="198" text-anchor="middle" font-size="13" fill="#64748b">Across four job postings</text><rect x="390" y="85" width="285" height="130" rx="15" fill="#ffffff" stroke="#263f5c" stroke-width="2"/><text x="532" y="120" text-anchor="middle" font-size="17" font-weight="700" fill="#263f5c">Interviews</text><text x="532" y="170" text-anchor="middle" font-size="38" font-weight="700" fill="#17263a">4</text><text x="532" y="198" text-anchor="middle" font-size="13" fill="#64748b">Passed, pending and failed outcomes</text><rect x="725" y="85" width="285" height="130" rx="15" fill="#ffffff" stroke="#263f5c" stroke-width="2"/><text x="867" y="120" text-anchor="middle" font-size="17" font-weight="700" fill="#263f5c">Accepted offers</text><text x="867" y="170" text-anchor="middle" font-size="38" font-weight="700" fill="#17263a">2</text><text x="867" y="198" text-anchor="middle" font-size="13" fill="#64748b">One at each verified company</text><rect x="1060" y="85" width="285" height="130" rx="15" fill="#ffffff" stroke="#263f5c" stroke-width="2"/><text x="1202" y="120" text-anchor="middle" font-size="17" font-weight="700" fill="#263f5c">Average placed GPA</text><text x="1202" y="170" text-anchor="middle" font-size="38" font-weight="700" fill="#17263a">3.38</text><text x="1202" y="198" text-anchor="middle" font-size="13" fill="#64748b">Calculated from accepted offers</text><rect x="180" y="270" width="1040" height="270" rx="12" fill="#ffffff" stroke="#9aa9ba"/><rect x="180" y="270" width="1040" height="55" rx="12" fill="#263f5c"/><text x="230" y="305" font-size="16" font-weight="700" fill="white">Job posting</text><text x="1100" y="305" text-anchor="middle" font-size="16" font-weight="700" fill="white">Applications</text><line x1="180" y1="378" x2="1220" y2="378" stroke="#d8e0e8"/><text x="230" y="360" font-size="15" fill="#25364a">Cyber Security Intern</text><text x="1100" y="360" text-anchor="middle" font-size="15" fill="#25364a">2</text><line x1="180" y1="426" x2="1220" y2="426" stroke="#d8e0e8"/><text x="230" y="408" font-size="15" fill="#25364a">Data Analyst Intern</text><text x="1100" y="408" text-anchor="middle" font-size="15" fill="#25364a">2</text><line x1="180" y1="474" x2="1220" y2="474" stroke="#d8e0e8"/><text x="230" y="456" font-size="15" fill="#25364a">Software Engineering Intern</text><text x="1100" y="456" text-anchor="middle" font-size="15" fill="#25364a">2</text><line x1="180" y1="522" x2="1220" y2="522" stroke="#d8e0e8"/><text x="230" y="504" font-size="15" fill="#25364a">Junior Developer</text><text x="1100" y="504" text-anchor="middle" font-size="15" fill="#25364a">1</text></g></svg>