<svg xmlns="http://www.w3.org/2000/svg" width="1400" height="900" viewBox="0 0 1400 900">
<rect width="1400" height="900" fill="#f5f7fa"/>
<text x="700" y="42" text-anchor="middle" font-family="Arial" font-size="28" font-weight="700" fill="#17263a">University Placement Database - Corrected ER Diagram</text>
<g font-family="Arial"><rect x="40" y="100" width="300" height="185" rx="10" fill="#ffffff" stroke="#263f5c" stroke-width="2"/>
<rect x="40" y="100" width="300" height="34" rx="10" fill="#263f5c"/>
<rect x="40" y="124" width="300" height="10" fill="#263f5c"/>
<text x="190.0" y="123" text-anchor="middle" font-size="16" font-weight="700" fill="#ffffff">STUDENTS</text><text x="52" y="154" font-size="14" fill="#1f2937">PK student_id</text><text x="52" y="177" font-size="14" fill="#1f2937">first_name</text><text x="52" y="200" font-size="14" fill="#1f2937">last_name</text><text x="52" y="223" font-size="14" fill="#1f2937">email (UQ)</text><text x="52" y="246" font-size="14" fill="#1f2937">degree_program</text><text x="52" y="269" font-size="14" fill="#1f2937">gpa</text><defs><marker id="arrow" markerWidth="10" markerHeight="10" refX="8" refY="3" orient="auto"><path d="M0,0 L0,6 L9,3 z" fill="#516b87"/></marker></defs><rect x="550" y="70" width="300" height="162" rx="10" fill="#ffffff" stroke="#263f5c" stroke-width="2"/>
<rect x="550" y="70" width="300" height="34" rx="10" fill="#263f5c"/>
<rect x="550" y="94" width="300" height="10" fill="#263f5c"/>
<text x="700.0" y="93" text-anchor="middle" font-size="16" font-weight="700" fill="#ffffff">APPLICATIONS</text><text x="562" y="124" font-size="14" fill="#1f2937">PK application_id</text><text x="562" y="147" font-size="14" fill="#1f2937">FK student_id</text><text x="562" y="170" font-size="14" fill="#1f2937">FK posting_id</text><text x="562" y="193" font-size="14" fill="#1f2937">application_date</text><text x="562" y="216" font-size="14" fill="#1f2937">status</text><rect x="1060" y="100" width="300" height="162" rx="10" fill="#ffffff" stroke="#263f5c" stroke-width="2"/>
<rect x="1060" y="100" width="300" height="34" rx="10" fill="#263f5c"/>
<rect x="1060" y="124" width="300" height="10" fill="#263f5c"/>
<text x="1210.0" y="123" text-anchor="middle" font-size="16" font-weight="700" fill="#ffffff">JOB_POSTINGS</text><text x="1072" y="154" font-size="14" fill="#1f2937">PK posting_id</text><text x="1072" y="177" font-size="14" fill="#1f2937">FK company_id</text><text x="1072" y="200" font-size="14" fill="#1f2937">title</text><text x="1072" y="223" font-size="14" fill="#1f2937">posting_type</text><text x="1072" y="246" font-size="14" fill="#1f2937">closing_date</text><rect x="1060" y="430" width="300" height="162" rx="10" fill="#ffffff" stroke="#263f5c" stroke-width="2"/>
<rect x="1060" y="430" width="300" height="34" rx="10" fill="#263f5c"/>
<rect x="1060" y="454" width="300" height="10" fill="#263f5c"/>
<text x="1210.0" y="453" text-anchor="middle" font-size="16" font-weight="700" fill="#ffffff">COMPANIES</text><text x="1072" y="484" font-size="14" fill="#1f2937">PK company_id</text><text x="1072" y="507" font-size="14" fill="#1f2937">company_name</text><text x="1072" y="530" font-size="14" fill="#1f2937">contact_email (UQ)</text><text x="1072" y="553" font-size="14" fill="#1f2937">location</text><text x="1072" y="576" font-size="14" fill="#1f2937">verified</text><rect x="550" y="400" width="300" height="162" rx="10" fill="#ffffff" stroke="#263f5c" stroke-width="2"/>
<rect x="550" y="400" width="300" height="34" rx="10" fill="#263f5c"/>
<rect x="550" y="424" width="300" height="10" fill="#263f5c"/>
<text x="700.0" y="423" text-anchor="middle" font-size="16" font-weight="700" fill="#ffffff">INTERVIEWS</text><text x="562" y="454" font-size="14" fill="#1f2937">PK interview_id</text><text x="562" y="477" font-size="14" fill="#1f2937">FK application_id</text><text x="562" y="500" font-size="14" fill="#1f2937">interview_date</text><text x="562" y="523" font-size="14" fill="#1f2937">interview_time</text><text x="562" y="546" font-size="14" fill="#1f2937">outcome</text><rect x="550" y="675" width="300" height="185" rx="10" fill="#ffffff" stroke="#263f5c" stroke-width="2"/>
<rect x="550" y="675" width="300" height="34" rx="10" fill="#263f5c"/>
<rect x="550" y="699" width="300" height="10" fill="#263f5c"/>
<text x="700.0" y="698" text-anchor="middle" font-size="16" font-weight="700" fill="#ffffff">OFFERS</text><text x="562" y="729" font-size="14" fill="#1f2937">PK offer_id</text><text x="562" y="752" font-size="14" fill="#1f2937">FK interview_id (UQ)</text><text x="562" y="775" font-size="14" fill="#1f2937">offer_date</text><text x="562" y="798" font-size="14" fill="#1f2937">start_date</text><text x="562" y="821" font-size="14" fill="#1f2937">salary</text><text x="562" y="844" font-size="14" fill="#1f2937">accepted</text><line x1="340" y1="190" x2="550" y2="150" stroke="#516b87" stroke-width="3" marker-end="url(#arrow)"/><text x="350" y="182" font-size="13" fill="#516b87">1</text><text x="512" y="142" font-size="13" fill="#516b87">many</text><line x1="850" y1="150" x2="1060" y2="190" stroke="#516b87" stroke-width="3" marker-end="url(#arrow)"/><text x="860" y="142" font-size="13" fill="#516b87">many</text><text x="1022" y="182" font-size="13" fill="#516b87">1</text><line x1="1210" y1="262" x2="1210" y2="430" stroke="#516b87" stroke-width="3" marker-end="url(#arrow)"/><text x="1220" y="254" font-size="13" fill="#516b87">many</text><text x="1172" y="422" font-size="13" fill="#516b87">1</text><line x1="700" y1="232" x2="700" y2="400" stroke="#516b87" stroke-width="3" marker-end="url(#arrow)"/><text x="710" y="224" font-size="13" fill="#516b87">1</text><text x="662" y="392" font-size="13" fill="#516b87">many</text><line x1="700" y1="562" x2="700" y2="675" stroke="#516b87" stroke-width="3" marker-end="url(#arrow)"/><text x="710" y="554" font-size="13" fill="#516b87">1</text><text x="662" y="667" font-size="13" fill="#516b87">0..1</text></g></svg>